<svg width="98" height="98" viewBox="0 0 98 98" fill="none" xmlns="http://www.w3.org/2000/svg">
<path d="M48.9986 11.2581C59.4223 11.2581 68.8575 15.4814 75.6879 22.3117C82.5168 29.1429 86.7423 38.5781 86.7423 48.9996C86.7423 59.4226 82.5168 68.8578 75.6879 75.6882C68.8575 82.517 59.4223 86.7426 48.9986 86.7426C38.5778 86.7426 29.1403 82.517 22.3115 75.6882C15.4811 68.8578 11.2578 59.4226 11.2578 48.9996C11.2578 38.5781 15.4811 29.1406 22.3115 22.3117C29.1426 15.4814 38.5778 11.2581 48.9986 11.2581ZM73.3238 24.6759C67.0997 18.4495 58.4985 14.6001 48.9986 14.6001C39.4994 14.6001 30.9005 18.4495 24.6756 24.6759C18.4492 30.9007 14.5999 39.4997 14.5999 48.9996C14.5999 58.501 18.4492 67.0999 24.6756 73.3248C30.9005 79.5512 39.4994 83.4005 48.9986 83.4005C58.5008 83.4005 67.0997 79.5512 73.3238 73.3248C79.5487 67.0999 83.4003 58.4987 83.4003 48.9996C83.4003 39.4997 79.5487 30.9007 73.3238 24.6759Z" fill="#FFFFFF"/>
<path d="M25.8613 67.4673C26.2406 67.5473 26.6595 67.4673 27.1172 67.2319L31.2323 64.4878C31.671 64.1465 31.93 63.7863 32.01 63.4062C32.0877 63.033 31.9985 62.6202 31.7442 62.167C31.4029 61.7375 31.045 61.4823 30.6687 61.4031C30.291 61.3231 29.8721 61.4138 29.4128 61.6788L25.2954 64.4253C24.8589 64.7688 24.6 65.1313 24.52 65.5091C24.4423 65.8808 24.5307 66.2883 24.7835 66.7376C25.1225 67.1436 25.4827 67.3873 25.8613 67.4673ZM73.434 65.5091C73.354 65.1268 73.1057 64.7619 72.6891 64.4169L68.5846 61.6788C68.1292 61.4435 67.7103 61.3658 67.3325 61.4458C66.9524 61.528 66.5945 61.7679 66.2578 62.1648C66.0286 62.6187 65.9532 63.0307 66.0331 63.4062C66.1131 63.7886 66.3591 64.1488 66.7674 64.4878L70.8825 67.2319C71.3395 67.4673 71.7584 67.5473 72.1385 67.4673C72.5147 67.3873 72.8704 67.1482 73.207 66.7483C73.4363 66.2997 73.514 65.8846 73.434 65.5091ZM22.2336 53.2094C22.5078 53.4836 22.9053 53.6481 23.4301 53.6999H28.9505C29.4752 53.6481 29.8766 53.4836 30.1508 53.2094C30.425 52.9375 30.5888 52.5399 30.6428 52.0174C30.5888 51.4972 30.425 51.0981 30.1508 50.824C29.8743 50.5498 29.4707 50.3852 28.9398 50.338H23.4408C22.9099 50.3875 22.5078 50.5498 22.2336 50.824C21.9617 51.0959 21.7979 51.495 21.7438 52.0174C21.7979 52.5399 21.9617 52.9375 22.2336 53.2094ZM67.8489 53.2094C68.1231 53.4836 68.5222 53.6481 69.047 53.6999H74.5696C75.0921 53.6481 75.4912 53.4836 75.7654 53.2094C76.038 52.9375 76.2018 52.5399 76.2536 52.0174C76.1995 51.495 76.038 51.0959 75.7654 50.824C75.4912 50.5498 75.0898 50.3875 74.5589 50.338H69.0599C68.529 50.3852 68.1254 50.5498 67.8512 50.824C67.577 51.0981 67.4148 51.495 67.3652 52.0174C67.4148 52.5422 67.577 52.9398 67.8489 53.2094ZM31.9666 40.6294C31.8843 40.2448 31.636 39.8822 31.2217 39.5342L27.1172 36.7968C26.6617 36.5615 26.2428 36.4861 25.8628 36.5661C25.485 36.646 25.127 36.8852 24.7904 37.2851C24.5611 37.7359 24.4857 38.1503 24.5657 38.5265C24.6457 38.9066 24.8894 39.2691 25.2999 39.6081L29.4128 42.3522C29.8705 42.5876 30.291 42.6653 30.671 42.5853C31.0465 42.5076 31.4029 42.2677 31.7396 41.8686C31.9688 41.417 32.0442 41.0049 31.9666 40.6294ZM67.3287 42.5853C67.7088 42.6653 68.1269 42.5876 68.5846 42.3522L72.6998 39.6081C73.1385 39.2668 73.3974 38.9043 73.4774 38.5265C73.5574 38.1526 73.4667 37.7382 73.2116 37.2851C72.8727 36.857 72.5124 36.6026 72.1346 36.5204C71.7607 36.4427 71.3441 36.531 70.8909 36.7908L66.7628 39.5456C66.3264 39.8883 66.0697 40.2494 65.9897 40.6294C65.9098 40.9981 65.9989 41.4086 66.2533 41.8557C66.5899 42.2631 66.9509 42.5053 67.3287 42.5853ZM59.8882 49.2436C60.2295 50.3274 60.4153 51.4805 60.4458 52.7022V52.7174C60.4153 54.3214 60.1259 55.8043 59.5737 57.1585C59.023 58.5119 58.2111 59.7405 57.1357 60.8418L57.1296 60.8479C56.026 61.921 54.7974 62.7329 53.4417 63.2851C52.0906 63.8358 50.6115 64.1275 49.0052 64.158H48.9945C47.3882 64.1275 45.9068 63.8358 44.5557 63.2851C43.2015 62.7329 41.9714 61.921 40.8701 60.8479L40.8617 60.8418C39.7886 59.7405 38.9767 58.5119 38.4237 57.1585C37.8738 55.8043 37.5844 54.3214 37.5517 52.7174V52.7022C37.5821 51.4805 37.7695 50.3274 38.1107 49.2436C38.4542 48.1552 38.9554 47.1338 39.6111 46.1795L40.1511 45.4414L40.7452 44.6059C41.3454 43.8329 41.9235 43.0278 42.4764 42.1923C43.0332 41.3484 43.5671 40.4756 44.0759 39.573C44.497 38.755 44.8405 37.9393 45.1079 37.1251C45.3265 36.4602 45.4948 35.793 45.609 35.1281H42.1504C42.0659 35.5599 41.9516 35.9827 41.8092 36.3977C41.6302 36.9202 41.4056 37.4359 41.1382 37.9431L41.1314 37.9538C40.6911 38.7185 40.2227 39.4717 39.7261 40.2166C39.2334 40.9569 38.7109 41.6873 38.1625 42.4063L36.79 44.299C35.9476 45.5016 35.3109 46.804 34.8768 48.2032C34.4426 49.6038 34.2119 51.1065 34.186 52.7082C34.2423 54.8111 34.6331 56.7373 35.3627 58.4777C36.0901 60.2157 37.1564 61.7718 38.5601 63.1473C39.9348 64.5464 41.4962 65.615 43.232 66.3423C44.9723 67.072 46.8939 67.465 48.9983 67.5237C51.1058 67.465 53.0274 67.072 54.7677 66.3423C56.5035 65.615 58.0603 64.551 59.4328 63.1518C60.8365 61.7786 61.9051 60.2157 62.6347 58.4792C63.3666 56.7373 63.7619 54.8134 63.8198 52.7082C63.7901 51.1065 63.5571 49.6038 63.1229 48.2032C62.6888 46.804 62.0498 45.5016 61.2097 44.299L59.8365 42.4063C59.2881 41.6889 58.7679 40.9569 58.2736 40.2189C57.777 39.474 57.3086 38.7185 56.8683 37.9538L56.8592 37.9431C56.5942 37.4359 56.3695 36.9202 56.1905 36.3977C56.0481 35.9827 55.9331 35.5599 55.847 35.1281H52.3884C52.5049 35.793 52.6732 36.4579 52.8911 37.1251C53.1569 37.9393 53.5004 38.7527 53.9208 39.5692C54.4654 40.4824 55.0221 41.3568 55.5857 42.1877C56.1494 43.0172 56.7343 43.8245 57.3428 44.6059L57.3543 44.6212C57.5439 44.8931 57.7336 45.1718 57.9194 45.4521C58.09 45.7111 58.2477 45.9594 58.3947 46.1909C59.0489 47.1452 59.5455 48.162 59.8882 49.2436ZM44.8383 54.4554C44.6204 53.9284 44.497 53.3541 44.4673 52.7364C44.4453 52.3998 44.3523 52.1515 44.1909 51.99C44.0332 51.8339 43.791 51.7417 43.4696 51.7158C43.1482 51.7417 42.9083 51.8339 42.7506 51.99C42.5929 52.1492 42.5023 52.3937 42.481 52.7235C42.5069 53.6435 42.6775 54.492 42.9882 55.2628C43.299 56.0336 43.7544 56.7305 44.3485 57.3527C44.9746 57.9506 45.6738 58.4061 46.4446 58.7168C47.2153 59.0276 48.0615 59.2005 48.9839 59.2309C49.3136 59.2073 49.5604 59.1144 49.7219 58.9544C49.8773 58.7991 49.9702 58.5614 49.9938 58.2423C49.9702 57.9163 49.8773 57.6764 49.7196 57.5188C49.5581 57.3588 49.3076 57.2659 48.9724 57.2423C48.3578 57.2103 47.7835 57.0869 47.2542 56.8691C46.7233 56.6513 46.2374 56.3382 45.801 55.93L45.7819 55.9102C45.3737 55.4745 45.0584 54.9886 44.8383 54.4554Z" fill="#FFFFFF"/>
<path d="M8.44874 50.6721H2.42494C1.50336 50.6721 0.753906 49.9235 0.753906 48.9996C0.753906 48.0772 1.50336 47.3285 2.42494 47.3285H8.44874C8.42513 47.883 8.41447 48.4398 8.41447 48.9996C8.41447 49.5609 8.42513 50.1177 8.44874 50.6721Z" fill="#FFFFFF"/>
<path d="M12.244 66.2325L6.69777 68.5578C5.84702 68.9158 4.86908 68.5144 4.51111 67.6637C4.15466 66.8129 4.55605 65.8327 5.4068 65.477L10.9508 63.1517C11.34 64.1982 11.7718 65.2264 12.244 66.2325Z" fill="#FFFFFF"/>
<path d="M21.5086 78.8557L17.2488 83.1155C16.5968 83.7675 15.5389 83.7675 14.8847 83.1155C14.2327 82.4613 14.2327 81.4034 14.8847 80.7514L19.1445 76.4915C19.5223 76.9021 19.9084 77.3035 20.3014 77.6987C20.6967 78.091 21.0981 78.4779 21.5086 78.8557Z" fill="#FFFFFF"/>
<path d="M35.1876 87.1743L32.9126 92.7358C32.5668 93.5865 31.5949 93.9963 30.7449 93.649C29.8942 93.3032 29.4859 92.3344 29.831 91.4836L32.109 85.913C33.1129 86.373 34.1403 86.7942 35.1876 87.1743Z" fill="#FFFFFF"/>
<path d="M50.6717 89.5515V95.5746C50.6717 96.4969 49.923 97.2456 48.9984 97.2456C48.0768 97.2456 47.3274 96.4969 47.3274 95.5746V89.5515C47.8826 89.5729 48.4394 89.5858 48.9984 89.5858C49.5605 89.5858 50.1172 89.5729 50.6717 89.5515Z" fill="#FFFFFF"/>
<path d="M66.232 85.7554L68.5573 91.3024C68.9153 92.1532 68.5139 93.1311 67.6632 93.4868C66.8124 93.8456 65.8322 93.4442 65.4765 92.5934L63.1512 87.0487C64.1977 86.658 65.2259 86.2261 66.232 85.7554Z" fill="#FFFFFF"/>
<path d="M78.8554 76.4915L83.1153 80.7514C83.7672 81.4034 83.7672 82.4613 83.1153 83.1155C82.461 83.7675 81.4031 83.7675 80.7511 83.1155L76.4913 78.8557C76.9018 78.4779 77.3032 78.091 77.6977 77.6987C78.0907 77.3035 78.4776 76.9021 78.8554 76.4915Z" fill="#FFFFFF"/>
<path d="M87.174 62.8128L92.7355 65.0878C93.5863 65.4336 93.996 66.4032 93.6487 67.2555C93.3029 68.1062 92.3341 68.5145 91.4834 68.1687L85.9128 65.8914C86.3728 64.8875 86.794 63.8593 87.174 62.8128Z" fill="#FFFFFF"/>
<path d="M89.551 47.3285H95.5741C96.4964 47.3285 97.2451 48.0772 97.2451 48.9996C97.2451 49.9235 96.4964 50.6721 95.5741 50.6721H89.551C89.5724 50.1177 89.5853 49.5609 89.5853 48.9996C89.5853 48.4398 89.5724 47.883 89.551 47.3285Z" fill="#FFFFFF"/>
<path d="M85.7552 31.768L91.3022 29.4404C92.1522 29.0847 93.1309 29.4861 93.4866 30.3368C93.8453 31.1876 93.4439 32.1655 92.5932 32.5212L87.0484 34.8488C86.6577 33.8015 86.2259 32.7718 85.7552 31.768Z" fill="#FFFFFF"/>
<path d="M76.4913 19.1448L80.7511 14.8849C81.4031 14.2329 82.461 14.2329 83.1153 14.8849C83.7672 15.5392 83.7672 16.5971 83.1153 17.249L78.8554 21.5089C78.4776 21.0984 78.0907 20.697 77.6977 20.3017C77.3032 19.9087 76.9018 19.5225 76.4913 19.1448Z" fill="#FFFFFF"/>
<path d="M62.8121 10.8263L65.0871 5.26477C65.4329 4.41402 66.4025 4.00426 67.2547 4.34928C68.1055 4.69735 68.5137 5.66616 68.1679 6.51691L65.8906 12.0875C64.8868 11.6275 63.8586 11.2063 62.8121 10.8263Z" fill="#FFFFFF"/>
<path d="M47.3274 8.44923V2.42543C47.3274 1.50385 48.0768 0.754395 48.9984 0.754395C49.923 0.754395 50.6717 1.50385 50.6717 2.42543V8.44923C50.1172 8.42562 49.5605 8.41496 48.9984 8.41496C48.4394 8.41496 47.8826 8.42562 47.3274 8.44923Z" fill="#FFFFFF"/>
<path d="M31.7677 12.2443L29.4401 6.69803C29.0844 5.84728 29.4858 4.86933 30.3366 4.51136C31.1873 4.15492 32.1653 4.5563 32.521 5.40705L34.8485 10.9518C33.8013 11.3402 32.7715 11.7721 31.7677 12.2443Z" fill="#FFFFFF"/>
<path d="M19.1445 21.5089L14.8847 17.249C14.2327 16.5971 14.2327 15.5392 14.8847 14.8849C15.5389 14.2329 16.5968 14.2329 17.2488 14.8849L21.5086 19.1448C21.0981 19.5225 20.6967 19.9087 20.3014 20.3017C19.9084 20.697 19.5223 21.0984 19.1445 21.5089Z" fill="#FFFFFF"/>
<path d="M5.26429 32.9129C4.41353 32.5672 4.00377 31.5953 4.34879 30.7453C4.6961 29.8946 5.66567 29.4863 6.51642 29.8321L12.0863 32.1094C11.627 33.1133 11.2058 34.1407 10.8258 35.188L5.26429 32.9129Z" fill="#FFFFFF"/>
<path d="M43.165 32.6449C42.2434 32.6449 41.494 31.8977 41.494 30.9739C41.494 30.0523 42.2434 29.3028 43.165 29.3028H54.8326C55.7564 29.3028 56.5059 30.0523 56.5059 30.9739C56.5059 31.8977 55.7564 32.6449 54.8326 32.6449H43.165Z" fill="#FFFFFF"/>
<path d="M44.7676 27.1437C43.8453 27.1437 43.0966 26.3973 43.0966 25.4726C43.0966 24.5511 43.8453 23.8016 44.7676 23.8016H53.2325C54.1548 23.8016 54.9035 24.5511 54.9035 25.4726C54.9035 26.3973 54.1548 27.1437 53.2325 27.1437H44.7676Z" fill="#FFFFFF"/>
</svg>
