<svg width="70" height="70" viewBox="0 0 70 70" fill="none" xmlns="http://www.w3.org/2000/svg">
<path d="M45.072 41.9513C45.1442 39.7446 46.1292 38.0858 48.0363 36.9826C50.015 35.9499 51.9847 35.9499 53.964 36.9826C55.8705 38.0858 56.8554 39.7446 56.9277 41.9513C56.8554 44.1578 55.8705 45.8436 53.964 47.0177C51.9847 48.0503 50.015 48.0503 48.0363 47.0177C46.1292 45.8436 45.1442 44.1578 45.072 41.9513ZM53.8554 27C55.202 27.1414 55.943 27.8652 56.0876 29.1804V29.3832C56.151 30.2131 56.5391 30.8311 57.2442 31.2457C58.0215 31.6605 58.7625 31.6605 59.4764 31.2457L59.684 31.1394C61.0215 30.5222 62.1147 30.7954 62.9639 31.9694L65.7202 36.8325C66.2804 38.0684 66.0005 39.0741 64.871 39.8333C64.0934 40.3808 63.7055 41.1045 63.7055 42.0045C63.7055 42.9663 64.0934 43.6907 64.871 44.1761C66.0005 44.9347 66.2804 45.9323 65.7202 47.1765L62.9639 52.0312C62.1147 53.2046 61.0215 53.4787 59.684 52.8606L59.4764 52.7549C58.7625 52.4103 58.0215 52.446 57.2442 52.8606C56.5391 53.2755 56.151 53.8933 56.0876 54.7227V54.829C55.943 56.2057 55.202 56.9294 53.8554 57H48.1445C46.7983 56.9294 46.0576 56.2057 45.9218 54.829V54.7227C45.8493 53.8933 45.4607 53.2755 44.7557 52.8606C43.9788 52.446 43.2381 52.4103 42.533 52.7549L42.3159 52.8606C40.9788 53.4787 39.9125 53.2046 39.144 52.0312L36.2797 47.1765C35.7195 45.9323 35.9998 44.9347 37.1296 44.1761C37.9062 43.6907 38.295 42.9663 38.295 42.0045C38.295 41.0337 37.9062 40.3099 37.1296 39.8333C35.9998 39.0741 35.7195 38.0684 36.2797 36.8325L39.0358 31.9694C39.8856 30.7954 40.9788 30.5222 42.3159 31.1394L42.533 31.2457C43.2381 31.6605 43.9788 31.6605 44.7557 31.2457C45.4607 30.7605 45.8493 30.1425 45.9218 29.3832V29.1804C46.0576 27.8652 46.7983 27.1414 48.1445 27H53.8554ZM49.2017 30.3102C48.7773 32.04 47.8556 33.311 46.4455 34.1404C44.9637 34.9705 43.3372 35.0762 41.5749 34.4495L39.6685 37.6624C41.0147 38.8978 41.6838 40.345 41.6838 42.0045C41.6838 43.655 41.0147 45.138 39.6685 46.4528L41.5749 49.5507C43.3372 49.0035 44.9637 49.1361 46.4455 49.966C47.8556 50.7248 48.7773 51.9694 49.2017 53.6901H52.7979C53.2233 51.9694 54.1807 50.7248 55.6631 49.966C57.0725 49.1361 58.6631 49.0035 60.4249 49.5507L62.3318 46.4528C60.9852 45.138 60.3165 43.655 60.3165 42.0045C60.3165 40.4159 60.9852 38.9684 62.3318 37.6624L60.4249 34.4495C58.6631 35.0762 57.0725 34.9705 55.6631 34.1404C54.1807 33.311 53.2233 32.04 52.7979 30.3102H49.2017ZM50.9999 44.4319C52.5539 44.2904 53.4038 43.4692 53.5396 41.9513C53.4038 40.4333 52.5539 39.6039 50.9999 39.4624C49.4457 39.6039 48.5965 40.4333 48.4608 41.9513C48.5965 43.4692 49.4457 44.2904 50.9999 44.4319Z" fill="white"/>
<path d="M39.4432 14.9708C39.4865 13.6468 40.0775 12.6515 41.2218 11.9895C42.409 11.37 43.5908 11.37 44.7784 11.9895C45.9223 12.6515 46.5132 13.6468 46.5566 14.9708C46.5132 16.2947 45.9223 17.3061 44.7784 18.0106C43.5908 18.6302 42.409 18.6302 41.2218 18.0106C40.0775 17.3061 39.4865 16.2947 39.4432 14.9708ZM44.7132 6C45.5212 6.08486 45.9658 6.5191 46.0525 7.30827V7.42993C46.0906 7.92785 46.3235 8.29867 46.7465 8.54743C47.2129 8.79632 47.6575 8.79632 48.0858 8.54743L48.2104 8.48362C49.0129 8.11332 49.6688 8.27722 50.1783 8.98166L51.8321 11.8995C52.1682 12.641 52.0003 13.2445 51.3226 13.7C50.856 14.0285 50.6233 14.4627 50.6233 15.0027C50.6233 15.5798 50.856 16.0144 51.3226 16.3057C52.0003 16.7608 52.1682 17.3594 51.8321 18.1059L50.1783 21.0187C49.6688 21.7228 49.0129 21.8872 48.2104 21.5164L48.0858 21.453C47.6575 21.2462 47.2129 21.2676 46.7465 21.5164C46.3235 21.7653 46.0906 22.136 46.0525 22.6336V22.6974C45.9658 23.5234 45.5212 23.9576 44.7132 24H41.2867C40.479 23.9576 40.0345 23.5234 39.9531 22.6974V22.6336C39.9096 22.136 39.6764 21.7653 39.2534 21.5164C38.7873 21.2676 38.3428 21.2462 37.9198 21.453L37.7895 21.5164C36.9873 21.8872 36.3475 21.7228 35.8864 21.0187L34.1678 18.1059C33.8317 17.3594 33.9999 16.7608 34.6777 16.3057C35.1437 16.0144 35.377 15.5798 35.377 15.0027C35.377 14.4202 35.1437 13.986 34.6777 13.7C33.9999 13.2445 33.8317 12.641 34.1678 11.8995L35.8215 8.98166C36.3314 8.27722 36.9873 8.11332 37.7895 8.48362L37.9198 8.54743C38.3428 8.79632 38.7873 8.79632 39.2534 8.54743C39.6764 8.2563 39.9096 7.88548 39.9531 7.42993V7.30827C40.0345 6.5191 40.479 6.08486 41.2867 6H44.7132ZM41.921 7.9861C41.6664 9.02403 41.1133 9.78659 40.2673 10.2842C39.3782 10.7823 38.4023 10.8457 37.345 10.4697L36.2011 12.3974C37.0088 13.1387 37.4103 14.007 37.4103 15.0027C37.4103 15.993 37.0088 16.8828 36.2011 17.6717L37.345 19.5304C38.4023 19.2021 39.3782 19.2817 40.2673 19.7796C41.1133 20.2349 41.6664 20.9817 41.921 22.014H44.0788C44.334 20.9817 44.9084 20.2349 45.7978 19.7796C46.6435 19.2817 47.5979 19.2021 48.655 19.5304L49.7991 17.6717C48.9911 16.8828 48.5899 15.993 48.5899 15.0027C48.5899 14.0495 48.9911 13.181 49.7991 12.3974L48.655 10.4697C47.5979 10.8457 46.6435 10.7823 45.7978 10.2842C44.9084 9.78659 44.334 9.02403 44.0788 7.9861H41.921ZM43 16.4591C43.9324 16.3743 44.4423 15.8815 44.5237 14.9708C44.4423 14.06 43.9324 13.5623 43 13.4775C42.0674 13.5623 41.5579 14.06 41.4765 14.9708C41.5579 15.8815 42.0674 16.3743 43 16.4591Z" fill="white"/>
<path d="M21.1429 48.5352C23.8214 49.6289 25.25 51.6797 25.4286 54.6875C25.3393 56.5104 24.7143 58.0599 23.5536 59.3359C22.3036 60.5208 20.7857 61.1589 19 61.25C17.2143 61.1589 15.6964 60.5208 14.4464 59.3359C13.2857 58.0599 12.6607 56.5104 12.5714 54.6875C12.75 51.6797 14.1786 49.6289 16.8571 48.5352V36.5625C16.9464 35.1953 17.6607 34.4661 19 34.375C20.3393 34.5573 21.0536 35.2865 21.1429 36.5625V48.5352ZM29.7143 10.9375V44.0234C32.4821 47.0312 33.9107 50.5859 34 54.6875C33.9107 59.0625 32.4375 62.6628 29.5804 65.4883C26.8125 68.4049 23.2857 69.9089 19 70C14.7143 69.9089 11.1875 68.4049 8.41964 65.4883C5.5625 62.6628 4.08929 59.0625 4 54.6875C4.08929 50.5859 5.51786 47.0312 8.28571 44.0234V10.9375C8.375 7.83854 9.40179 5.24089 11.3661 3.14453C13.4196 1.13932 15.9643 0.0911458 19 0C22.0357 0.0911458 24.5804 1.13932 26.6339 3.14453C28.5982 5.24089 29.625 7.83854 29.7143 10.9375ZM19 65.625C22.0357 65.5339 24.5804 64.4857 26.6339 62.4805C28.5982 60.3841 29.625 57.7865 29.7143 54.6875C29.625 51.0417 28.1964 48.125 25.4286 45.9375V10.9375C25.3393 9.11458 24.7143 7.5651 23.5536 6.28906C22.3036 5.10417 20.7857 4.46615 19 4.375C17.2143 4.46615 15.6964 5.10417 14.4464 6.28906C13.2857 7.5651 12.6607 9.11458 12.5714 10.9375V45.9375C9.80357 48.125 8.375 51.0417 8.28571 54.6875C8.375 57.7865 9.40179 60.3841 11.3661 62.4805C13.4196 64.4857 15.9643 65.5339 19 65.625Z" fill="white"/>
</svg>
